<?xml version="1.0" encoding="utf-8"?>
<!-- Generator: Adobe Illustrator 26.5.0, SVG Export Plug-In . SVG Version: 6.00 Build 0)  -->
<svg version="1.1" id="layer" xmlns="http://www.w3.org/2000/svg" xmlns:xlink="http://www.w3.org/1999/xlink" x="0px" y="0px"
	 viewBox="0 0 600 140.6" style="enable-background:new 0 0 600 140.6;" xml:space="preserve">
<style type="text/css">
	.st0{fill:#CF3417;}
	.st1{fill:#50A2DA;}
	.st2{fill:#1A65A1;}
	.st3{fill:#EF9795;}
</style>
<g>
	<path class="st0" d="M377,118c1.7,3,0.5,6.8-2.7,8.4s-7.2,0.5-8.9-2.5l-6.8-12c-1.7-3-0.5-6.8,2.7-8.4s7.2-0.5,8.9,2.5L377,118z"/>
	<path class="st1" d="M29,64.8H11.7v15.6H29c4.3,0,7.7-3.5,7.7-7.8C36.7,68.4,33.2,64.8,29,64.8z M11.7,53.5h16.1
		c3.5,0,6.2-2.8,6.2-6.3c0-3.6-2.7-6.5-6.2-6.5H11.7V53.5z M0,34.4c0-2.7,2.6-5,5.8-5h21.9c10.1,0,18.4,7.1,18.4,16.9
		c0,6.4-4,10-7.2,12c4.9,2.2,10,7.1,10,14.9c0,10.5-8.9,18.3-19.8,18.3H5.8c-3.2,0-5.8-2.2-5.8-5C0,86.7,0,34.4,0,34.4z M84.6,43.3
		c2.4,0.6,4.3,2.8,4.3,5.6c0,3.2-2.4,5.8-5.5,5.8c-0.5,0-1.3-0.2-3.2-0.3C73.9,54,69.3,60,69.3,67v21.8c0,2.8-2.6,5.1-5.7,5.1
		c-3.2,0-5.7-2.3-5.7-5.1V48.3c0-2.6,2.4-4.7,5.3-4.7s5.3,2.1,5.3,4.7V51h0.2c2.4-4.3,5.8-8.2,12.1-8.2C81.9,42.8,83.2,43,84.6,43.3
		L84.6,43.3z M115.6,54.1c-7.8,0-14.2,6.4-14.2,14.2c0,7.8,6.4,14.3,14.2,14.3c8,0,14.2-6.4,14.2-14.3
		C129.8,60.5,123.5,54.1,115.6,54.1L115.6,54.1z M115.6,93.9c-14.7,0-26.7-10.9-26.7-25.6c0-14.6,11.9-25.5,26.7-25.5
		s26.7,10.9,26.7,25.5C142.2,83,130.4,93.9,115.6,93.9z M192.3,84.9c1.8,1.9,1.4,5.2-1.2,7.5c-2.4,1.9-5.7,2.2-7.4,0L166,73.2
		c-1.1-1.3-1.7-2.6-1.7-4.4s0.6-3.1,1.7-4.4l17.4-19.1c1.8-2.2,5.1-1.9,7.4,0c2.5,2.3,3,5.6,1.2,7.5l-14.3,16L192.3,84.9z
		 M148.9,34.5c0-2.8,2.7-5,6-5s6,2.3,6,5v54.3c0,2.8-2.7,5-6,5s-6-2.3-6-5V34.5z M236,63.5c-2-5.8-7.3-9.6-13.5-9.6
		c-6.1,0-11.4,3.8-13.4,9.6H236L236,63.5z M242.9,73.7H209c2,5.8,7.7,9.6,13.9,9.6c4.3,0,9.5-1.6,12.5-4.3c1.7-1.8,4.8-1.8,7.1,0.2
		c2.2,1.8,2.7,5,1.1,6.8c-5.2,5-13,7.8-20.7,7.8c-14.8,0-27.3-11-27.3-25.6s12.1-25.5,26.9-25.5C237,42.7,249,54,249,68.2
		C248.9,71.1,246.2,73.7,242.9,73.7L242.9,73.7z M282.4,43.3c2.4,0.6,4.3,2.8,4.3,5.6c0,3.2-2.4,5.8-5.5,5.8c-0.5,0-1.3-0.2-3.2-0.3
		C271.7,54,267,60,267,67v21.8c0,2.8-2.6,5.1-5.7,5.1c-3.2,0-5.7-2.3-5.7-5.1V48.3c0-2.6,2.4-4.7,5.3-4.7s5.3,2.1,5.3,4.7V51h0.2
		c2.4-4.3,5.8-8.2,12.1-8.2C279.7,42.8,281,43,282.4,43.3L282.4,43.3z M314.4,71.7c-0.5,0-0.9-0.2-1.2-0.6c-4.2-5.3-6.6-12-6.6-18.9
		c0-14.8,10.7-27.5,25-29.4c0.7-0.1,1.4,0.3,1.6,1s0,1.4-0.6,1.8c-11.4,7.2-18.2,19.7-18.2,33.4c0,3.6,0.5,7.2,1.4,10.7
		c0.2,0.7-0.1,1.4-0.7,1.8C314.9,71.6,314.6,71.7,314.4,71.7L314.4,71.7z"/>
	<path class="st2" d="M408.2,65.3c0-6-4.6-10.8-10.4-10.8c-5.9,0-10.5,4.8-10.5,10.8v23.6c0,2.8-2.7,5-5.9,5c-3.2,0-5.9-2.3-5.9-5
		V34.6c0-2.8,2.7-5,5.9-5c3.2,0,5.9,2.3,5.9,5v16.6c0.1,0,0.2,0.1,0.2,0c2.2-3.9,7.1-8,13.8-8c11.2,0,18.6,8.3,18.6,20.7V89
		c0,2.8-2.7,5-5.9,5c-3.2,0-5.9-2.3-5.9-5L408.2,65.3L408.2,65.3z M467.1,63.5c-2-5.8-7.3-9.6-13.5-9.6c-6.1,0-11.4,3.8-13.4,9.6
		H467.1z M474,73.7h-33.9c2,5.8,7.7,9.6,13.9,9.6c4.3,0,9.5-1.6,12.5-4.3c1.7-1.8,4.9-1.8,7.1,0.2c2.2,1.8,2.7,5,1.1,6.8
		c-5.2,5-13,7.8-20.7,7.8c-14.8,0-27.3-11-27.3-25.6s12.1-25.5,26.9-25.5c14.5,0,26.5,11.3,26.5,25.5C480,71.1,477.3,73.7,474,73.7z
		 M527,79.8c2.2,2.3,2.6,5.7,0.2,7.8c-4.5,4-10.3,6.3-16.7,6.3c-14.5,0-26.1-11-26.1-25.6s11.6-25.5,26.1-25.5
		c6.4,0,12.2,2.2,16.7,6.3c2.4,2.2,2.1,5.3-0.2,7.8c-2.1,2.3-5.5,2.6-7.4,0.7c-2.5-2.2-5.7-3.3-9-3.3c-7.8,0-13.9,6.4-13.9,14.2
		s6.2,14.3,13.9,14.3c3.4,0,6.6-1.3,9-3.4C521.5,77.2,524.9,77.6,527,79.8L527,79.8z M581.1,84.9c1.8,1.9,1.4,5.2-1.2,7.5
		c-2.4,1.9-5.7,2.2-7.4,0l-17.6-19.2c-1.1-1.3-1.7-2.6-1.7-4.4s0.6-3.1,1.7-4.4l17.4-19.1c1.8-2.2,5.1-1.9,7.4,0
		c2.5,2.3,3,5.6,1.2,7.5l-14.3,16L581.1,84.9z M537.8,34.5c0-2.8,2.7-5,6-5s6,2.3,6,5v54.3c0,2.8-2.7,5-6,5s-6-2.3-6-5V34.5z
		 M464.4,136.5c1.3,0,2.4-1.1,2.4-2.5c0-1.3-1.1-2.4-2.4-2.4s-2.4,1.1-2.4,2.4C462.1,135.4,463.1,136.5,464.4,136.5L464.4,136.5z
		 M462,137.4c0,0.5-0.4,0.9-1,0.9c-0.5,0-1-0.4-1-0.9v-9.3c0-0.5,0.5-0.9,1-0.9s1,0.4,1,0.9v2.9l0,0c0.6-0.8,1.4-1.4,2.7-1.4
		c2.3,0,4.1,1.9,4.1,4.4s-1.8,4.4-4.1,4.4c-1.2,0-2.2-0.6-2.8-1.6l0,0L462,137.4L462,137.4z M471.2,139.2l0.9-1.9l-3.2-6.5
		c-0.2-0.4,0-1,0.6-1.2c0.5-0.2,1.1-0.1,1.3,0.4l2.4,4.9l2.4-4.9c0.2-0.4,0.8-0.6,1.4-0.4c0.5,0.2,0.8,0.8,0.6,1.2l-4.6,9.3
		c-0.2,0.4-0.8,0.6-1.4,0.4C471.3,140.2,471,139.7,471.2,139.2L471.2,139.2z M486.7,117.9c0-1,0.9-1.8,2-1.8h11.8c1,0,1.7,0.9,1.7,2
		s-0.8,2-1.7,2h-9.7v5h7.8c0.9,0,1.7,0.9,1.7,2c0,1.1-0.8,2-1.7,2h-7.8v7.5c0,1-0.9,1.8-2,1.8s-2-0.8-2-1.8L486.7,117.9L486.7,117.9
		z M506.7,117.9c0-1,1-1.7,2.2-1.7s2.2,0.8,2.2,1.7v18.7c0,1-1,1.7-2.2,1.7s-2.2-0.8-2.2-1.7V117.9L506.7,117.9z M517.8,118
		c0-1,1.1-1.9,2.5-1.9c1.1,0,2,0.5,2.4,1.2l8.5,13.5h0.1v-13c0-1,1-1.7,2.1-1.7c1.2,0,2.1,0.8,2.1,1.7v18.6c0,1-1.1,1.9-2.5,1.9
		c-1.1,0-2-0.5-2.4-1.2l-8.5-13.6H522v13c0,1-1,1.7-2.1,1.7s-2.1-0.8-2.1-1.7L517.8,118L517.8,118z M552,120.1h-5.5v7h5.5
		c1.9,0,3.6-1.6,3.6-3.5S554,120.1,552,120.1z M542.2,117.9c0-1,1-1.8,2.1-1.8h7.8c4.4,0,7.9,3.2,7.9,7.5c0,3.2-1.9,5.7-4.5,6.8
		l2.6,5.1c0.5,0.9,0,2-1.1,2.6c-1,0.5-2.3,0.1-2.7-0.7l-3.2-6.3h-4.6v5.5c0,1-1,1.8-2.1,1.8s-2.1-0.8-2.1-1.8v-18.7H542.2z
		 M574.6,122.2h-0.2l-2.9,8h6.1L574.6,122.2L574.6,122.2z M584.4,135.8c0.3,0.9-0.2,1.9-1.3,2.4c-1.1,0.3-2.3,0-2.7-0.9l-1.4-3.2h-9
		l-1.4,3.2c-0.4,0.9-1.6,1.2-2.7,0.9c-1.1-0.4-1.6-1.5-1.3-2.4l7.3-18.3c0.9-1.9,4.3-1.9,5.1,0L584.4,135.8L584.4,135.8z
		 M334.7,100.6c-27.7,0-50.3-22.4-50.3-50s22.6-50,50.3-50c14,0,27.4,5.8,37,16.1c2.2,2.4,2.1,6.2-0.3,8.5l0,0
		c-2.5,2.2-6.3,2.1-8.5-0.3c-7.3-7.8-17.4-12.2-28.1-12.2c-21.1,0-38.2,17-38.2,38c0,20.9,17.1,38,38.2,38c9.8,0,19.2-3.7,26.3-10.4
		c2.4-2.3,6.2-2.2,8.5,0.2c2.3,2.4,2.2,6.2-0.2,8.5l0,0C360,95.7,347.6,100.6,334.7,100.6L334.7,100.6z"/>
	<path class="st3" d="M375.3,118.5c0.5,0.7,0.1,1.5-0.8,1.9s-2.1,0.1-2.6-0.6l-2.8-3.8c-0.5-0.7-0.2-1.5,0.8-1.9
		c0.9-0.4,2.1-0.1,2.6,0.6L375.3,118.5L375.3,118.5z"/>
	<path class="st0" d="M359.1,96.4c1.2-0.5,2.5-0.3,3,0.5s-0.1,1.9-1.3,2.5l-6.5,3.1c-1.2,0.5-2.5,0.3-3-0.5s0.1-1.9,1.3-2.5
		L359.1,96.4L359.1,96.4z"/>
	<path class="st2" d="M593.2,15.5c0.8,0,1.4-0.7,1.4-1.6c0-0.8-0.5-1.5-1.4-1.5h-2.7v3.1H593.2z M594.4,21.7l-1.8-4.2h-2.1v4.2h-1.8
		V10.3h4.5c1.8,0,3.3,1.6,3.3,3.6c0,1.6-0.8,2.8-2,3.4l2,4.4H594.4L594.4,21.7z M592.3,8.3c-3.8,0-6.8,3.5-6.8,7.8
		c0,4.4,3,7.9,6.8,7.9s6.8-3.5,6.8-7.9C599,11.8,596,8.3,592.3,8.3z M592.3,25c-4.3,0-7.8-4-7.8-8.9c0-4.8,3.5-8.9,7.8-8.9
		c4.2,0,7.7,4,7.7,8.9S596.5,25,592.3,25z"/>
</g>
</svg>
