<?xml version="1.0" encoding="utf-8"?>
<!-- Generator: Adobe Illustrator 26.5.0, SVG Export Plug-In . SVG Version: 6.00 Build 0)  -->
<svg version="1.1" id="Layer_1" xmlns="http://www.w3.org/2000/svg" xmlns:xlink="http://www.w3.org/1999/xlink" x="0px" y="0px"
	 viewBox="0 0 107.7 45.4" style="enable-background:new 0 0 107.7 45.4;" xml:space="preserve">
<style type="text/css">
	.st0{fill:#FFFFFF;}
	.st1{fill:#DB1F31;}
</style>
<path class="st0" d="M106.3,33.9c-0.8,0-1.4-0.6-1.4-1.4c0-0.8,0.6-1.4,1.4-1.4c0.8,0,1.4,0.6,1.4,1.4
	C107.7,33.3,107.1,33.9,106.3,33.9z M106.3,31.3c-0.7,0-1.2,0.5-1.2,1.2c0,0.7,0.5,1.2,1.2,1.2c0.7,0,1.2-0.5,1.2-1.2c0,0,0,0,0,0
	C107.5,31.8,107,31.3,106.3,31.3z"/>
<path class="st0" d="M105.8,31.8h0.6c0.2,0,0.3,0,0.4,0.1c0.1,0.1,0.1,0.2,0.1,0.3v0c0,0.2-0.1,0.4-0.3,0.4l0.4,0.5h-0.3l-0.4-0.5
	H106v0.5h-0.3V31.8z M106.4,32.5c0.2,0,0.3-0.1,0.3-0.2v0c0-0.2-0.1-0.2-0.3-0.2H106v0.5H106.4z"/>
<path class="st0" d="M0,31.1h10.6v2.7H3.1v2.8h6.6v2.7H3.1v2.9h7.6v2.7H0V31.1z"/>
<path class="st0" d="M13,31.1h3.3L20,37l3.7-5.9H27v14h-3.1V36l-4,6h-0.1L16,36v9.1h-3V31.1z"/>
<path class="st0" d="M29.8,31.1h5.7c3.4,0,5.4,2,5.4,4.9v0c0,3.3-2.5,4.9-5.7,4.9h-2.3v4.2h-3.1V31.1z M35.4,38.2
	c1.2,0.2,2.3-0.7,2.4-1.9c0-0.1,0-0.2,0-0.2v0c0-1.4-1-2.1-2.5-2.1h-2.4v4.3H35.4z"/>
<path class="st0" d="M42,38.1L42,38.1c0.1-4.2,3.5-7.4,7.7-7.3c3.9,0.1,7.1,3.3,7.3,7.2v0c-0.1,4.1-3.5,7.4-7.7,7.3
	C45.3,45.3,42.1,42.1,42,38.1z M53.7,38.1L53.7,38.1c0.1-2.4-1.8-4.4-4.1-4.5c0,0-0.1,0-0.1,0c-2.3,0-4.2,1.9-4.2,4.2
	c0,0.1,0,0.1,0,0.2v0c-0.1,2.4,1.8,4.3,4.1,4.4c0,0,0.1,0,0.1,0c2.3,0,4.2-1.9,4.2-4.2C53.7,38.3,53.7,38.2,53.7,38.1z"/>
<path class="st0" d="M57.1,31.1h3.3l2.9,9.4l3.2-9.4h2.6l3.2,9.4l2.9-9.4h3.2l-4.8,14h-2.7l-3.2-9l-3.2,9h-2.7L57.1,31.1z"/>
<path class="st0" d="M79.8,31.1h10.6v2.7h-7.5v2.8h6.6v2.7h-6.6v2.9h7.6v2.7H79.8V31.1z"/>
<path class="st0" d="M92.8,31.1h6.4c1.5-0.1,3,0.4,4.1,1.4c0.8,0.9,1.3,2,1.2,3.2v0c0.1,2-1.1,3.7-3,4.4l3.4,5h-3.6l-3-4.5h-2.4v4.5
	h-3.1L92.8,31.1z M99,37.9c1.5,0,2.4-0.8,2.4-2v0c0-1.3-0.9-2-2.4-2h-3.1v4L99,37.9z"/>
<path class="st1" d="M104.9,3.8c-21.3,5-21.1-5.5-39.2-3.3l-9.2,4.3c19-3.4,19.4,9.5,45.1,2.3c1.2-0.3,2.3-0.6,3.4-0.9V3.8z"/>
<path class="st1" d="M104.9,8.8c-3.8,0.5-7.5,1.2-11.2,2.3c-27,7.6-26.3-5-46.3-2.1l-9.2,4.3c19.5-2.6,20.3,9.6,46.9,2.3
	c8.7-2.4,14.8-3,19.8-2.7L104.9,8.8z"/>
<path class="st1" d="M104.9,18.1c-6.6-1.5-14.2-2.4-28.1,1.4c-27.4,7.5-27-4.8-47.6-2.1L20,21.7C40,19.2,41,31.2,68,24
	c20.1-5.4,27-1.5,36.9,0.6L104.9,18.1z"/>
</svg>
